<?xml version="1.0" standalone="no"?>
<!DOCTYPE svg PUBLIC "-//W3C//DTD SVG 20010904//EN"
 "http://www.w3.org/TR/2001/REC-SVG-20010904/DTD/svg10.dtd">
<svg version="1.0" xmlns="http://www.w3.org/2000/svg"
 width="459.000000pt" height="459.000000pt" viewBox="0 0 459.000000 459.000000"
 preserveAspectRatio="xMidYMid meet">
<metadata>
Created by potrace 1.11, written by Peter Selinger 2001-2013
</metadata>
<g transform="translate(0.000000,459.000000) scale(0.100000,-0.100000)"
fill="#000000" stroke="none">
<path d="M0 3356 l0 -1235 48 14 c85 25 307 34 395 15 68 -14 130 -62 146
-113 23 -71 30 -407 11 -506 -5 -30 -32 -100 -59 -155 -76 -160 -100 -245
-143 -511 -16 -103 -21 -192 -25 -434 -3 -167 -2 -333 2 -368 l7 -63 251 2
252 3 1 35 c0 19 4 43 8 52 6 14 4 18 -10 18 -16 0 -16 2 -4 10 10 6 13 23 11
53 -1 25 2 48 7 51 11 6 7 111 -8 221 -9 75 -8 179 4 206 4 10 3 20 -3 24 -17
10 -13 35 7 35 14 0 15 2 2 10 -12 8 -13 13 -3 29 6 10 9 22 5 25 -17 18 -11
47 14 56 26 10 25 30 -2 30 -17 0 -17 14 1 65 17 46 19 81 6 89 -9 6 0 64 13
85 4 6 0 11 -10 11 -13 0 -14 3 -5 14 6 8 13 27 15 42 9 64 19 104 27 104 4 0
13 18 19 40 6 22 15 40 20 40 5 0 17 14 27 30 9 17 23 30 30 30 6 0 18 9 26
21 8 11 18 16 21 11 3 -6 0 -13 -6 -15 -10 -4 -10 -6 -1 -6 21 -2 61 50 68 87
13 72 75 84 132 27 30 -29 48 -33 38 -7 -21 51 -20 52 31 46 75 -10 154 -42
154 -63 0 -9 5 -22 10 -27 6 -6 12 -26 14 -45 2 -19 9 -70 15 -114 11 -79 14
-100 26 -225 3 -35 8 -66 10 -68 2 -2 0 -15 -6 -29 -6 -16 -6 -22 1 -18 18 11
11 -27 -7 -42 -10 -8 -13 -12 -8 -9 6 2 16 -4 23 -14 10 -16 8 -20 -8 -25 -24
-8 -25 -18 -3 -36 15 -12 16 -12 10 4 -3 9 -2 17 3 17 15 0 12 -22 -7 -42 -16
-18 -16 -18 0 -12 19 7 24 -20 6 -32 -8 -5 -8 -9 1 -14 9 -6 8 -14 -4 -33 -13
-20 -14 -26 -4 -30 11 -4 11 -6 0 -6 -7 -1 -10 -6 -6 -13 5 -7 3 -8 -5 -3 -8
4 -10 18 -7 34 3 14 3 20 0 14 -12 -27 -25 -11 -22 27 1 30 -4 46 -23 67 -13
15 -27 29 -31 31 -5 2 -8 8 -8 13 0 14 -33 49 -47 49 -7 0 -13 -7 -13 -15 0
-8 -4 -15 -10 -15 -5 0 -10 9 -10 19 0 16 -5 18 -27 12 -34 -9 -41 -27 -14
-36 12 -3 21 -13 21 -20 0 -9 -6 -12 -15 -9 -12 5 -15 -4 -16 -42 0 -27 -2
-62 -4 -79 -9 -80 -11 -164 -4 -159 12 7 11 0 -6 -71 -8 -33 -15 -74 -15 -91
0 -18 -7 -45 -15 -60 -8 -16 -15 -45 -15 -65 0 -20 -11 -80 -25 -133 -14 -53
-25 -112 -25 -131 l0 -35 95 0 c64 0 95 4 95 11 0 8 6 7 17 -2 10 -8 14 -9 10
-2 -4 6 -3 14 2 18 5 3 9 13 9 23 0 9 3 26 6 37 7 19 7 19 -7 2 -13 -15 -16
-15 -27 -2 -7 8 -19 15 -27 15 -8 0 -11 5 -8 11 5 7 13 5 24 -5 24 -22 32 -20
27 7 -3 12 -5 24 -5 27 -1 3 -5 -1 -10 -9 -5 -7 -14 -10 -20 -7 -17 11 -13 20
12 32 27 12 50 7 40 -9 -4 -7 -8 -17 -9 -24 -2 -11 3 -10 45 14 2 1 -6 10 -18
20 -12 10 -23 28 -26 41 -2 12 -6 26 -9 31 -3 5 2 8 12 7 12 -1 17 6 16 21 -1
13 3 20 8 17 6 -4 8 -21 6 -40 -3 -27 -1 -31 9 -22 10 8 17 8 25 0 17 -17 28
-15 22 3 -4 8 -11 12 -17 8 -6 -4 -8 0 -4 11 4 10 3 15 -3 11 -5 -3 -14 4 -20
15 -10 18 -8 22 7 26 14 4 19 15 20 42 1 20 8 41 17 48 18 13 22 29 4 18 -8
-5 -9 5 -5 37 3 24 10 45 16 47 5 2 8 9 5 17 -3 7 1 27 10 43 8 16 12 33 8 37
-4 4 4 4 18 0 l25 -7 -22 21 c-29 28 -30 50 -2 25 22 -19 22 -19 10 4 -10 18
-9 22 4 22 9 0 13 5 10 10 -4 6 -10 8 -15 5 -4 -3 -6 4 -3 16 4 14 9 17 16 10
6 -6 15 -11 21 -11 5 0 0 8 -11 18 -29 25 -36 55 -19 88 11 19 12 30 5 35 -8
5 -8 8 -1 13 6 4 9 13 6 20 -3 8 -1 17 5 20 6 4 8 13 4 21 -3 9 -1 21 4 28 10
14 10 38 0 54 -4 6 -3 14 2 18 7 4 7 15 0 33 -7 18 -7 28 0 30 6 2 9 8 5 13
-4 8 -24 151 -26 199 -1 8 -7 24 -14 35 -8 11 -14 28 -14 38 0 9 -7 34 -16 55
-10 20 -19 47 -21 60 -2 12 -9 35 -15 50 -7 15 -12 32 -13 37 -2 18 -64 119
-90 148 -14 15 -23 27 -20 27 4 0 -7 12 -24 26 -17 14 -29 30 -26 34 3 5 -3 9
-12 9 -10 0 -34 1 -55 3 -20 2 -34 -1 -31 -6 3 -5 -11 -7 -30 -4 -20 2 -39 -1
-42 -7 -3 -6 -7 -6 -11 2 -4 9 -11 10 -25 3 -10 -6 -19 -7 -19 -2 0 17 153 77
200 78 25 0 63 5 84 9 27 6 37 5 32 -3 -9 -16 13 -26 29 -12 19 16 120 -39
186 -102 9 -9 20 -14 23 -11 8 8 77 -38 70 -48 -3 -5 2 -9 11 -9 9 0 27 -12
40 -26 13 -14 28 -23 34 -20 5 4 15 -3 21 -14 6 -11 17 -20 25 -20 7 0 23 -12
34 -26 12 -15 21 -24 21 -20 0 4 13 -2 29 -13 16 -12 34 -21 40 -21 6 0 11 -4
11 -10 0 -5 14 -10 30 -10 20 0 30 -5 30 -15 0 -9 11 -20 24 -25 13 -5 27 -14
31 -20 6 -9 10 -9 16 1 6 10 12 9 28 -5 12 -11 21 -15 21 -10 0 14 -59 49 -78
46 -14 -2 -14 -1 -3 7 12 8 12 12 -2 26 -9 9 -21 13 -27 10 -14 -9 -13 1 3 17
6 7 17 27 23 43 12 36 36 36 74 0 14 -13 39 -31 55 -39 27 -14 28 -16 8 -16
-13 0 -23 -4 -23 -10 0 -15 50 -60 67 -60 12 0 13 -3 4 -14 -9 -11 -9 -16 0
-22 7 -4 9 -3 5 4 -3 6 2 13 13 17 11 3 22 13 25 21 3 9 2 12 -4 9 -20 -13
-21 24 -1 44 12 12 21 30 21 42 0 15 4 19 15 15 44 -18 48 -16 21 8 -17 15
-31 34 -32 42 -1 8 -10 27 -19 41 -16 24 -16 26 14 55 24 24 36 29 56 24 14
-4 23 -10 21 -15 -3 -5 2 -15 10 -22 15 -12 14 -14 -7 -20 l-24 -7 23 -1 c14
-1 26 -9 29 -19 2 -10 20 -24 39 -31 31 -11 37 -11 47 3 14 19 57 11 57 -10 0
-11 13 -14 53 -12 50 3 52 2 51 -22 -3 -57 -4 -76 -3 -95 3 -40 -14 -140 -25
-148 -6 -5 6 -6 27 -3 22 3 45 10 53 17 16 13 19 114 4 153 -12 33 -2 86 16
86 8 0 14 -4 14 -10 0 -5 9 -10 20 -10 12 0 20 -7 20 -16 0 -11 8 -15 32 -12
31 3 33 1 53 -57 22 -63 58 -110 89 -116 11 -3 25 -22 36 -48 9 -25 27 -49 39
-55 12 -5 20 -15 17 -22 -5 -13 14 -24 45 -24 25 0 25 -30 -1 -37 -24 -6 -26
-19 -5 -27 8 -3 15 -14 15 -23 0 -10 7 -28 15 -40 8 -12 13 -28 10 -35 -3 -8
11 -31 32 -53 22 -23 42 -56 48 -79 8 -30 19 -45 40 -55 43 -20 47 -32 19 -59
-28 -28 -31 -42 -9 -42 8 0 16 -7 16 -15 1 -8 3 -19 4 -25 1 -5 3 -17 4 -25 0
-8 7 -15 15 -15 8 0 16 -16 20 -40 3 -22 11 -40 17 -40 6 0 9 -12 7 -28 -2
-21 6 -36 40 -68 46 -45 54 -74 21 -74 -18 0 -20 -4 -14 -33 4 -17 14 -40 22
-49 8 -9 16 -29 16 -45 1 -15 8 -34 14 -41 7 -7 13 -23 13 -35 0 -11 14 -36
31 -53 36 -38 35 -73 -2 -54 -19 11 -20 10 -9 -10 6 -11 8 -29 5 -39 -3 -12 0
-21 10 -25 8 -3 15 -15 15 -26 0 -20 4 -20 500 -20 l500 0 0 2295 0 2295
-2295 0 -2295 0 0 -1234z m2831 477 c8 -9 15 -9 29 -1 15 10 23 7 43 -12 22
-21 24 -29 19 -88 -3 -46 -1 -63 7 -58 6 4 9 2 6 -6 -3 -8 6 -24 20 -36 22
-20 30 -44 26 -79 -1 -7 12 -26 29 -43 l31 -30 -28 -11 c-15 -7 -73 -15 -128
-20 -55 -5 -110 -11 -122 -13 -13 -3 -25 0 -29 5 -3 6 -12 3 -21 -8 -8 -10
-11 -12 -7 -4 4 9 3 12 -4 7 -5 -3 -13 0 -15 6 -3 7 -3 -5 0 -26 4 -27 3 -37
-5 -32 -6 3 -13 2 -17 -4 -12 -19 -23 -10 -29 25 -4 19 -11 35 -16 35 -6 0
-11 10 -11 23 -1 16 -2 18 -6 5 -9 -37 -26 -18 -20 23 3 22 2 52 -2 67 -5 15
-4 38 1 52 7 20 11 22 19 10 8 -12 9 -10 4 7 -3 12 -3 34 1 49 7 25 8 26 15 9
5 -15 8 -8 8 23 1 31 5 42 17 42 8 0 12 5 9 10 -10 16 -35 -8 -36 -34 0 -13
-3 -16 -6 -7 -9 22 27 80 51 83 11 2 20 8 19 13 -3 15 39 28 47 15 7 -12 40
-3 40 11 0 13 50 7 61 -8z m-284 -315 c-3 -8 -6 -5 -6 6 -1 11 2 17 5 13 3 -3
4 -12 1 -19z m73 -92 c0 -3 -4 -8 -10 -11 -5 -3 -10 -1 -10 4 0 6 5 11 10 11
6 0 10 -2 10 -4z m450 -41 c9 -10 9 -15 1 -15 -6 0 -11 -9 -11 -20 0 -11 -7
-20 -16 -20 -8 0 -12 4 -9 10 3 5 0 7 -8 4 -15 -5 -51 39 -40 50 12 12 71 6
83 -9z m-389 -145 c6 -83 14 -110 35 -110 7 0 17 -7 21 -15 5 -8 53 -37 106
-65 85 -43 106 -50 157 -50 69 0 108 -25 115 -75 3 -16 8 -42 11 -56 9 -40
-59 -129 -98 -129 -15 0 -28 4 -28 9 0 5 -25 36 -55 67 -30 32 -55 62 -55 66
0 4 -5 8 -11 8 -7 0 -17 6 -23 14 -6 8 -21 17 -33 21 -24 7 -23 11 -23 -71 0
-23 -3 -25 -26 -20 -64 16 -85 18 -98 7 -11 -10 -21 -9 -44 3 -49 25 -64 45
-57 76 3 15 8 93 10 172 3 124 6 151 25 187 16 33 26 42 43 39 20 -3 23 -10
28 -78z m-330 53 c13 -16 12 -17 -3 -4 -10 7 -18 15 -18 17 0 8 8 3 21 -13z
m-26 -45 l36 -31 -38 -13 c-51 -18 -67 -18 -59 1 3 9 -1 18 -9 21 -23 9 -18
23 6 17 18 -5 20 -3 14 16 -9 30 8 26 50 -11z m66 -1 c-10 -9 -11 -8 -5 6 3
10 9 15 12 12 3 -3 0 -11 -7 -18z m360 -44 c-10 -17 -10 -16 -11 3 0 23 13 41
18 25 2 -6 -1 -18 -7 -28z m259 -35 c-33 -26 -41 -22 -22 11 13 23 19 27 30
18 12 -9 10 -14 -8 -29z m-644 -4 c-25 -18 -37 -18 -30 1 4 9 0 15 -7 16 -8 1
-3 4 11 8 34 11 51 -6 26 -25z m414 -2 c0 -10 5 -23 12 -30 7 -7 9 -12 5 -12
-9 0 -47 42 -47 52 0 4 7 8 15 8 8 0 15 -8 15 -18z m118 -95 c16 -4 22 -2 19
6 -3 9 13 11 62 6 39 -3 69 -1 73 4 4 6 13 4 22 -6 18 -17 22 -32 6 -22 -12 7
-53 -19 -44 -28 10 -10 -97 3 -131 16 -45 16 -105 58 -99 68 3 5 20 -2 37 -15
18 -13 42 -26 55 -29z m-591 -130 c9 -5 9 -15 3 -32 -5 -14 -7 -38 -4 -55 4
-20 2 -30 -5 -30 -7 0 -11 -8 -9 -17 2 -12 -4 -18 -17 -19 -26 -2 -34 -3 -41
-6 -4 -2 -8 19 -11 46 -4 51 13 106 34 106 7 0 13 4 13 9 0 10 19 9 37 -2z
m519 -141 c27 -19 104 -119 104 -136 0 -7 -9 -1 -21 14 -22 28 -44 25 -36 -5
3 -12 0 -19 -9 -19 -7 0 -11 -6 -9 -12 4 -9 -6 -14 -26 -15 -29 -2 -30 -1 -14
11 17 12 17 13 -3 18 -13 4 -23 0 -27 -9 -4 -11 -14 -14 -33 -10 -16 3 -45 2
-65 -3 -21 -4 -39 -4 -43 1 -3 5 -13 5 -24 -1 -25 -13 -30 -13 -30 4 0 18 48
27 123 21 l62 -5 -60 18 c-33 9 -71 23 -84 30 -18 11 -21 11 -16 1 6 -9 2 -11
-13 -7 -12 4 -25 2 -28 -3 -8 -14 -21 -11 -21 6 0 8 4 15 9 15 4 0 8 7 8 15 0
21 20 19 21 -2 1 -17 2 -17 6 0 2 9 13 17 24 17 11 0 18 4 15 9 -7 11 59 24
83 16 12 -4 29 3 48 19 33 30 33 30 59 12z m384 -196 c0 -11 -4 -20 -10 -20
-5 0 -10 9 -10 20 0 11 5 20 10 20 6 0 10 -9 10 -20z m-1453 -46 c3 -9 0 -20
-8 -25 -8 -5 -15 -4 -17 2 -3 6 -9 6 -18 -2 -19 -16 -18 0 3 23 20 22 32 23
40 2z m1427 1 c-4 -8 -8 -15 -10 -15 -2 0 -4 7 -4 15 0 8 4 15 10 15 5 0 7 -7
4 -15z m22 -11 c-4 -9 -9 -15 -11 -12 -3 3 -3 13 1 22 4 9 9 15 11 12 3 -3 3
-13 -1 -22z m-546 -14 c0 -5 -3 -11 -7 -11 -44 -7 -63 -6 -63 1 0 5 12 11 28
13 15 2 30 5 35 6 4 0 7 -3 7 -9z m-93 -6 c-3 -3 -12 -4 -19 -1 -8 3 -5 6 6 6
11 1 17 -2 13 -5z m-787 -14 c0 -5 -7 -10 -16 -10 -8 0 -12 5 -9 10 3 6 10 10
16 10 5 0 9 -4 9 -10z m1460 -35 c23 -27 -7 -64 -52 -65 -10 0 -10 42 -2 64 8
20 38 21 54 1z m-346 -21 c17 -23 17 -31 6 -84 -7 -33 -10 -66 -6 -75 3 -9 2
-23 -3 -33 -5 -9 -15 -32 -21 -49 -7 -18 -18 -33 -25 -33 -8 0 -21 -7 -30 -16
-20 -20 -108 -44 -137 -37 -13 3 -31 13 -40 21 -10 8 -18 11 -18 7 0 -19 -59
59 -64 84 -13 72 14 93 147 111 90 12 122 24 111 41 -3 5 1 6 9 3 21 -8 30 12
16 37 -9 17 -8 20 2 14 9 -6 11 -3 6 9 -4 10 -3 15 3 11 6 -3 10 -1 10 4 0 18
14 12 34 -15z m-184 12 c0 -16 -15 -36 -27 -36 -8 0 -11 5 -8 13 4 6 0 5 -7
-4 -11 -14 -15 -14 -26 -3 -16 18 -15 22 6 27 23 6 62 8 62 3z m-40 -625 c0
-16 -39 -19 -57 -5 -16 12 -14 13 20 14 20 0 37 -4 37 -9z m-23 -53 c-3 -8 -6
-5 -6 6 -1 11 2 17 5 13 3 -3 4 -12 1 -19z m-3 -34 c3 -8 -3 -25 -14 -36 -11
-12 -20 -18 -21 -12 0 5 -2 19 -3 31 -1 12 1 20 6 17 4 -3 8 0 8 5 0 17 17 13
24 -5z m-1504 -19 c0 -8 -4 -15 -10 -15 -5 0 -7 7 -4 15 4 8 8 15 10 15 2 0 4
-7 4 -15z m391 -1032 c-9 -16 -10 -16 -11 4 0 12 3 30 7 40 7 16 8 16 11 -4 2
-12 -1 -30 -7 -40z m37 -11 c10 -10 17 -27 15 -38 -2 -10 -5 -25 -5 -32 -1 -7
-12 -15 -25 -18 -12 -4 -23 -10 -23 -15 0 -5 -4 -9 -9 -9 -14 0 -1 72 16 92 8
9 12 22 8 27 -10 17 3 13 23 -7z m-57 -145 c-10 -9 -11 -8 -5 6 3 10 9 15 12
12 3 -3 0 -11 -7 -18z m20 -180 c-10 -9 -11 -8 -5 6 3 10 9 15 12 12 3 -3 0
-11 -7 -18z"/>
<path d="M2754 2915 c21 -16 32 -13 21 4 -3 6 -14 11 -23 11 -15 -1 -15 -2 2
-15z"/>
<path d="M1553 655 c-3 -9 -3 -19 1 -22 3 -4 6 1 6 11 0 10 5 14 12 10 7 -4 8
-3 4 4 -10 16 -15 15 -23 -3z"/>
<path d="M1438 1843 c7 -3 16 -2 19 1 4 3 -2 6 -13 5 -11 0 -14 -3 -6 -6z"/>
<path d="M223 1791 c-3 -12 -11 -17 -23 -14 -10 3 -30 -3 -44 -14 -19 -14 -25
-27 -26 -55 0 -21 -4 -38 -10 -38 -5 0 -10 5 -10 11 0 17 -23 5 -26 -15 -3
-23 -23 -46 -40 -46 -8 0 -14 -7 -14 -15 0 -8 -7 -15 -15 -15 -13 0 -15 -95
-15 -795 l0 -795 105 0 c98 0 108 2 128 23 12 13 34 27 50 31 35 8 37 26 18
139 -7 38 -7 86 0 140 5 45 10 270 9 501 -1 344 -4 431 -17 490 -9 39 -18 86
-20 104 -3 18 -14 37 -24 43 -13 7 -19 21 -19 44 0 34 14 47 23 23 2 -7 7 1
11 17 4 17 12 46 18 65 16 48 13 149 -5 178 -12 19 -48 14 -54 -7z m25 -184
c3 -12 -4 -17 -22 -17 -28 0 -33 9 -14 28 15 15 32 10 36 -11z"/>
<path d="M1573 1785 c0 -8 4 -12 9 -9 5 3 6 10 3 15 -9 13 -12 11 -12 -6z"/>
<path d="M2410 1699 c0 -5 9 -9 20 -9 11 0 20 2 20 4 0 2 -9 6 -20 9 -11 3
-20 1 -20 -4z"/>
<path d="M2468 1528 c9 -9 15 -9 24 0 9 9 7 12 -12 12 -19 0 -21 -3 -12 -12z"/>
<path d="M2568 1513 c7 -3 16 -2 19 1 4 3 -2 6 -13 5 -11 0 -14 -3 -6 -6z"/>
<path d="M2530 1480 c0 -5 9 -10 20 -10 11 0 20 5 20 10 0 6 -9 10 -20 10 -11
0 -20 -4 -20 -10z"/>
<path d="M2363 1402 c11 -12 13 -22 6 -34 -7 -13 -5 -15 10 -11 10 3 22 0 25
-6 4 -6 15 -11 24 -11 14 0 14 1 1 13 -9 6 -23 24 -32 40 -10 15 -25 27 -34
27 -15 0 -15 -2 0 -18z"/>
<path d="M2345 1380 c4 -6 11 -8 16 -5 14 9 11 15 -7 15 -8 0 -12 -5 -9 -10z"/>
<path d="M2488 1355 c-3 -13 -2 -22 3 -20 4 3 9 0 11 -6 2 -6 16 -9 32 -7 l29
3 -28 28 c-34 33 -41 34 -47 2z"/>
<path d="M2640 1340 c-12 -8 -12 -10 5 -11 l20 0 -20 -9 -20 -9 20 0 c11 0 27
4 35 9 13 9 13 11 0 20 -19 12 -21 12 -40 0z"/>
<path d="M1560 910 c0 -6 7 -10 15 -10 8 0 15 2 15 4 0 2 -7 6 -15 10 -8 3
-15 1 -15 -4z"/>
<path d="M1574 795 c-7 -17 3 -35 19 -35 8 0 7 3 -2 9 -8 5 -11 16 -8 25 4 9
4 16 1 16 -2 0 -7 -7 -10 -15z"/>
<path d="M1660 705 c0 -8 5 -15 10 -15 6 0 10 7 10 15 0 8 -4 15 -10 15 -5 0
-10 -7 -10 -15z"/>
<path d="M1570 419 c0 -5 5 -7 10 -4 6 3 10 8 10 11 0 2 -4 4 -10 4 -5 0 -10
-5 -10 -11z"/>
<path d="M1626 394 c-11 -7 -18 -16 -15 -18 2 -2 13 2 23 10 11 7 18 16 15 18
-2 2 -13 -2 -23 -10z"/>
<path d="M1655 370 c-3 -5 -1 -10 4 -10 6 0 11 5 11 10 0 6 -2 10 -4 10 -3 0
-8 -4 -11 -10z"/>
<path d="M1606 347 c3 -10 9 -15 12 -12 3 3 0 11 -7 18 -10 9 -11 8 -5 -6z"/>
<path d="M1561 254 c0 -11 3 -14 6 -6 3 7 2 16 -1 19 -3 4 -6 -2 -5 -13z"/>
<path d="M1896 115 c4 -8 10 -12 15 -9 11 6 2 24 -11 24 -5 0 -7 -7 -4 -15z"/>
<path d="M1897 39 c4 -13 8 -18 11 -10 2 7 -1 18 -6 23 -8 8 -9 4 -5 -13z"/>
</g>
</svg>
